<svg xmlns="http://www.w3.org/2000/svg" width="21" height="22" viewBox="0 0 21 22" fill="none">
  <path d="M6.15564 1C4.36564 2.15 3.15564 4.18 3.15564 6.5C3.15564 8.82 4.36564 10.85 6.18564 12C3.11564 12 0.65564 9.54 0.65564 6.5C0.65564 5.04131 1.2351 3.64236 2.26655 2.61091C3.298 1.57946 4.69695 1 6.15564 1ZM17.7256 2.5L19.1556 3.93L3.58564 19.5L2.15564 18.07L17.7256 2.5ZM11.5456 4.93L10.0656 4L8.62564 5L9.04564 3.3L7.65564 2.24L9.40564 2.12L9.98564 0.470001L10.6556 2.1L12.3856 2.13L11.0356 3.26L11.5456 4.93ZM8.24564 8.54L7.08564 7.81L5.96564 8.59L6.30564 7.27L5.21564 6.44L6.57564 6.35L7.02564 5.06L7.53564 6.33L8.89564 6.36L7.84564 7.23L8.24564 8.54ZM17.6556 12.5C17.6556 13.9587 17.0762 15.3576 16.0447 16.3891C15.0133 17.4205 13.6143 18 12.1556 18C10.9356 18 9.80564 17.6 8.89564 16.93L16.5856 9.24C17.2556 10.15 17.6556 11.28 17.6556 12.5ZM13.2556 19.08L16.0256 17.93L15.7856 21.28L13.2556 19.08ZM17.5856 16.38L18.7356 13.61L20.9356 16.15L17.5856 16.38ZM18.7356 11.42L17.5956 8.64L20.9356 8.88L18.7356 11.42ZM8.28564 17.93L11.0556 19.08L8.52564 21.27L8.28564 17.93Z" fill="black"/>
</svg>